<?xml version="1.0" encoding="UTF-8"?> <svg xmlns="http://www.w3.org/2000/svg" width="1044.28" height="276.04"><defs><style>.cls-1{fill:#fff;}.cls-2{fill:#8dc63f;}.cls-3{fill:#f9e988;}.cls-4{fill:#8bc53f;}.cls-5{fill:#009345;}.cls-6{fill:#58595b;}</style></defs><title>coingecko_full vector (white font)</title><g><title>background</title><rect fill="none" id="canvas_background" height="602" width="802" y="-1" x="-1"></rect></g><g><title>Layer 1</title><g id="Coin_Gecko_Vector_Text"><path id="svg_1" d="m431.66,108.39c-2.84,-11.07 -10,-19.17 -24,-19.17c-20.66,0 -29.3,18.22 -29.3,36.71s8.64,36.72 29.3,36.72c15,0 23.22,-11.2 24.56,-25.24l16.47,0c-1.35,23.08 -17.68,39 -41,39c-28.89,0 -46.17,-22.95 -46.17,-50.49s17.22,-50.53 46.11,-50.53c21.73,0.13 38.87,12.15 40.9,32.94l-16.87,0.06z" class="cls-1"></path><path id="svg_2" d="m458.66,139.11c0,-21.33 12.82,-36.71 35.23,-36.71s35.23,15.38 35.23,36.71s-12.82,36.86 -35.23,36.86s-35.23,-15.39 -35.23,-36.86zm55.07,0c0,-12 -6.07,-24.56 -19.84,-24.56s-19.84,12.55 -19.84,24.56s6.07,24.71 19.84,24.71s19.84,-12.56 19.84,-24.71z" class="cls-1"></path><path id="svg_3" d="m542.35,77.69l15.39,0l0,14.58l-15.39,0l0,-14.58zm0,26.6l15.39,0l0,69.79l-15.39,0l0,-69.79z" class="cls-1"></path><path id="svg_4" d="m574.48,104.29l14.58,0l0,10.26l0.27,0.27a25,25 0 0 1 21.74,-12.43c15.12,0 24.7,8.1 24.7,23.75l0,47.93l-15.39,0l0,-43.87c-0.27,-10.93 -4.59,-15.65 -13.63,-15.65c-10.26,0 -16.88,8.09 -16.88,18.35l0,41.18l-15.39,0l0,-69.79z" class="cls-1"></path><path id="svg_5" d="m738.23,174.08l-10.8,0l-2.56,-11.34c-9,10.26 -17.28,13.63 -29,13.63c-28.87,0.02 -46.19,-22.98 -46.19,-50.49s17.32,-50.49 46.17,-50.49c21,0 38.74,11.2 41.3,32.94l-16.47,0c-1.62,-12.69 -12.68,-19.17 -24.83,-19.17c-20.66,0 -29.3,18.22 -29.3,36.71s8.64,36.72 29.3,36.72c17.27,0.27 26.72,-10.12 27,-26.46l-25.65,0l0,-12.81l41,0l0.03,50.76z" class="cls-1"></path><path id="svg_6" d="m766.45,143.16c0,10.94 5.94,20.66 18.76,20.66c8.91,0 14.31,-3.92 17,-11.61l14.59,0c-3.37,15.25 -16.33,23.76 -31.59,23.76c-21.86,0 -34.15,-15.26 -34.15,-36.72c0,-19.85 13,-36.85 33.75,-36.85c22,0 35.5,19.84 32.94,40.76l-51.3,0zm35.91,-10.12c-0.54,-9.72 -7.16,-18.49 -17.55,-18.49c-10.67,0 -17.95,8.09 -18.36,18.49l35.91,0z" class="cls-1"></path><path id="svg_7" d="m876.61,127.64c-1.22,-8.51 -7.43,-13.09 -15.93,-13.09c-8,0 -19.17,4.18 -19.17,25.37c0,11.61 5.13,23.9 18.49,23.9c8.91,0 15.12,-5.94 16.61,-15.93l15.39,0c-2.84,18.09 -14,28.08 -32,28.08c-21.87,0 -33.88,-15.53 -33.88,-36.05c0,-21.06 11.48,-37.52 34.42,-37.52c16.2,0 30,8.1 31.46,25.24l-15.39,0z" class="cls-1"></path><path id="svg_8" d="m905,77.69l15.39,0l0,54.81l27.81,-28.21l18.9,0l-26.73,25.64l29.29,44.15l-18.8,0l-21.33,-33.89l-9.18,8.91l0,25l-15.35,0l0,-96.41z" class="cls-1"></path><path id="svg_9" d="m973.81,139.11c0,-21.33 12.82,-36.71 35.23,-36.71s35.24,15.38 35.24,36.71s-12.83,36.86 -35.24,36.86s-35.23,-15.39 -35.23,-36.86zm55.08,0c0,-12 -6.08,-24.56 -19.85,-24.56s-19.84,12.55 -19.84,24.56s6.07,24.71 19.84,24.71s19.85,-12.56 19.85,-24.71z" class="cls-1"></path></g><g id="Coin_Gecko_AI"><path id="svg_10" d="m276,137.39a138,138 0 1 1 -138.6,-137.39a138,138 0 0 1 138.6,137.39z" class="cls-2"></path><path id="svg_11" d="m265.65,137.44a127.63,127.63 0 1 1 -128.2,-127.05a127.64,127.64 0 0 1 128.2,127.05z" class="cls-3"></path><path id="svg_12" d="m140.35,18.66a70.18,70.18 0 0 1 24.53,0a74.66,74.66 0 0 1 23.43,7.85c7.28,4 13.57,9.43 19.83,14.52s12.49,10.3 18.42,16a93.38,93.38 0 0 1 15.71,19a108.07,108.07 0 0 1 11,22.17c5.33,15.66 7.18,32.53 4.52,48.62l-0.79,0c-2.67,-15.95 -6.29,-31.15 -12,-45.61a178,178 0 0 0 -9.44,-21.25a208.8,208.8 0 0 0 -12.42,-19.93a72.3,72.3 0 0 0 -16.64,-16.8c-6.48,-4.62 -13.93,-7.61 -21.14,-10.45s-14.36,-5.78 -21.88,-7.94s-15.16,-3.78 -23.14,-5.35l0.01,-0.83z" class="cls-1"></path><path id="svg_13" d="m202.74,92.39c-9.26,-2.68 -18.86,-6.48 -28.58,-10.32c-0.56,-2.44 -2.72,-5.48 -7.09,-9.19c-6.35,-5.51 -18.28,-5.37 -28.59,-2.93c-11.38,-2.68 -22.62,-3.63 -33.41,-1c-88.25,24.31 -38.21,83.62 -70.61,143.24c4.61,9.78 54.3,66.84 126.2,51.53c0,0 -24.59,-59.09 30.9,-87.45c45.01,-23.09 77.53,-65.81 11.18,-83.88z" class="cls-4"></path><path id="svg_14" d="m213.64,131.2a5.35,5.35 0 1 1 -5.38,-5.32a5.36,5.36 0 0 1 5.38,5.32z" class="cls-1"></path><path id="svg_15" d="m138.48,69.91c6.43,0.46 29.68,8 35.68,12.12c-5,-14.5 -21.83,-16.43 -35.68,-12.12z" class="cls-5"></path><path id="svg_16" d="m144.6,106.58a24.68,24.68 0 1 1 -24.68,-24.67a24.67,24.67 0 0 1 24.68,24.67z" class="cls-1"></path><path id="svg_17" d="m137.28,106.8a17.36,17.36 0 1 1 -17.36,-17.36a17.36,17.36 0 0 1 17.36,17.36z" class="cls-6"></path><path id="svg_18" d="m233.63,142.08c-20,14.09 -42.74,24.78 -75,24.78c-15.1,0 -18.16,-16 -28.14,-8.18c-5.15,4.06 -23.31,13.14 -37.72,12.45s-37.77,-9.14 -44.28,-39.9c-2.58,30.76 -3.9,53.42 -15.45,79.39c23,36.83 77.84,65.24 127.62,53c-5.35,-37.35 27.29,-73.93 45.68,-92.65c7,-7.09 20.3,-18.66 27.29,-28.91l0,0.02z" class="cls-4"></path><path id="svg_19" d="m232.85,143c-6.21,5.66 -13.6,9.85 -21.12,13.55a134.24,134.24 0 0 1 -23.7,8.63c-8.16,2.11 -16.67,3.7 -25.29,2.92s-17.43,-3.71 -23.14,-10.17l0.27,-0.31c7,4.54 15.08,6.14 23.12,6.37a108.57,108.57 0 0 0 24.3,-2a132.34,132.34 0 0 0 23.61,-7.3c7.63,-3.15 15.18,-6.8 21.68,-12l0.27,0.31z" class="cls-6"></path></g></g></svg> 