<svg width="168" height="48" viewBox="0 0 168 48" fill="none" xmlns="http://www.w3.org/2000/svg">
<g clip-path="url(#clip0_441_166)">
<path d="M34.2857 0.00012207H13.7143C6.14009 0.00012207 0 6.14022 0 13.7144V34.2858C0 41.86 6.14009 48.0001 13.7143 48.0001H34.2857C41.8599 48.0001 48 41.86 48 34.2858V13.7144C48 6.14022 41.8599 0.00012207 34.2857 0.00012207Z" fill="#5E38F4"/>
<path d="M13.301 28.6393L14.3961 32.0283C14.4091 32.0684 14.4659 32.0684 14.4789 32.0283L15.574 28.6393C16.1099 26.9764 17.4139 25.6726 19.0767 25.1365L22.4657 24.0414C22.5058 24.0286 22.5058 23.9716 22.4657 23.9588L19.0767 22.8637C17.4139 22.3276 16.1099 21.0238 15.574 19.3609L14.4789 15.9719C14.4659 15.9317 14.4091 15.9317 14.3961 15.9719L13.301 19.3609C12.7651 21.0238 11.4612 22.3276 9.79833 22.8637L6.40929 23.9588C6.36914 23.9716 6.36914 24.0286 6.40929 24.0414L9.79833 25.1365C11.4612 25.6726 12.7627 26.9764 13.301 28.6393Z" fill="white"/>
<path d="M32.4261 28.6393L33.5212 32.0283C33.5342 32.0684 33.5909 32.0684 33.604 32.0283L34.699 28.6393C35.2349 26.9764 36.5388 25.6726 38.2017 25.1365L41.5908 24.0414C41.6309 24.0286 41.6309 23.9716 41.5908 23.9588L38.2017 22.8637C36.5388 22.3276 35.2349 21.0238 34.699 19.3609L33.604 15.9719C33.5909 15.9317 33.5342 15.9317 33.5212 15.9719L32.4261 19.3609C31.8902 21.0238 30.5861 22.3276 28.9233 22.8637L25.5343 23.9588C25.4942 23.9716 25.4942 24.0286 25.5343 24.0414L28.9233 25.1365C30.5861 25.6726 31.8878 26.9764 32.4261 28.6393Z" fill="white"/>
<path d="M65.5558 8.91441H85.9627V12.9876H70.5752V21.175H82.301V25.2481H70.5752V37.7144H65.5558V8.91441ZM90.6195 8.09155H95.639V37.7144H90.6195V8.09155ZM110.845 38.0436C104.92 38.0436 100.435 33.847 100.435 27.3876C100.435 20.9281 105.085 16.7727 110.968 16.7727C116.893 16.7727 121.583 20.9281 121.583 27.3876C121.583 33.847 116.769 38.0436 110.845 38.0436ZM110.845 33.7236C113.642 33.7236 116.44 31.6253 116.44 27.3876C116.44 23.1498 113.766 21.1338 110.927 21.1338C108.047 21.1338 105.496 23.1498 105.496 27.3876C105.496 31.6253 107.965 33.7236 110.845 33.7236ZM135.595 38.0436C129.67 38.0436 125.185 33.847 125.185 27.3876C125.185 20.9281 129.835 16.7727 135.718 16.7727C141.643 16.7727 146.333 20.9281 146.333 27.3876C146.333 33.847 141.519 38.0436 135.595 38.0436ZM135.595 33.7236C138.392 33.7236 141.19 31.6253 141.19 27.3876C141.19 23.1498 138.516 21.1338 135.677 21.1338C132.797 21.1338 130.246 23.1498 130.246 27.3876C130.246 31.6253 132.715 33.7236 135.595 33.7236ZM165.507 21.0104L155.262 33.4356H165.507V37.7144H149.296V33.8058L159.541 21.463H149.296V17.143H165.507V21.0104Z" fill="white"/>
</g>
<defs>
<clipPath id="clip0_441_166">
<rect width="168" height="48" fill="white"/>
</clipPath>
</defs>
</svg>
